# xmcd
#
# Track frame offsets: 
#        150
#        4205
#        19120
#        32069
#        49686
#        63966
#        80439
#        90971
#        99693
#        118204
#        128105
#        141189
#        154055
#        165258
#        173480
#        184448
#        195873
#        203723
#
# Disc length: 2936 seconds
#
# Revision: 0
# Processed by: cddbd v1.5.2PL0 Copyright (c) Steve Scherf et al.
# Submitted via: ExactAudioCopyFreeDBPlugin 1.0
#
DISCID=e00b7612
DTITLE=Tim Stafford - Acoustic Guitar
DYEAR=2017
DGENRE=Acoustic
TTITLE0=Safe Water
TTITLE1=Distant Island
TTITLE2=Temperance Reel
TTITLE3=Janets Waltz
TTITLE4=Hillbilly Neighbor
TTITLE5=Angel Terrace
TTITLE6=Wildwood Flower
TTITLE7=Smitten Kitten
TTITLE8=Presbyterian Hymn Medley
TTITLE9=Girl I Left Behind Me
TTITLE10=Via Dolorosa
TTITLE11=Mason Orchard
TTITLE12=Backseat Blues
TTITLE13=Watercolor Sky
TTITLE14=Tideline
TTITLE15=Shaker Vanity
TTITLE16=Long Branch Coffee
TTITLE17=I am America
EXTD=
EXTT0=
EXTT1=
EXTT2=
EXTT3=
EXTT4=
EXTT5=
EXTT6=
EXTT7=
EXTT8=
EXTT9=
EXTT10=
EXTT11=
EXTT12=
EXTT13=
EXTT14=
EXTT15=
EXTT16=
EXTT17=
PLAYORDER=
